<svg width="342" height="349" viewBox="0 0 342 349" fill="none" xmlns="http://www.w3.org/2000/svg">
<g filter="url(#filter0_ddd)">
<rect x="46" y="37" width="250" height="250" rx="125" fill="#03CEA4"/>
</g>
<path d="M95.82 172.725C95.86 172.595 95.93 172.5 96.03 172.44C96.13 172.37 96.24 172.335 96.36 172.335C96.52 172.335 96.655 172.385 96.765 172.485C96.885 172.575 96.945 172.7 96.945 172.86C96.945 172.93 96.93 173.01 96.9 173.1L93.51 182.655C93.46 182.795 93.375 182.905 93.255 182.985C93.135 183.055 93 183.09 92.85 183.09C92.71 183.09 92.58 183.055 92.46 182.985C92.34 182.905 92.255 182.795 92.205 182.655L89.265 174.345L86.295 182.655C86.245 182.795 86.16 182.905 86.04 182.985C85.92 183.055 85.79 183.09 85.65 183.09C85.51 183.09 85.38 183.055 85.26 182.985C85.14 182.905 85.055 182.795 85.005 182.655L81.6 173.1C81.57 173.02 81.555 172.945 81.555 172.875C81.555 172.715 81.615 172.585 81.735 172.485C81.865 172.385 82.01 172.335 82.17 172.335C82.29 172.335 82.4 172.37 82.5 172.44C82.61 172.5 82.685 172.595 82.725 172.725L85.68 181.245L88.68 172.815C88.73 172.665 88.81 172.555 88.92 172.485C89.03 172.405 89.15 172.365 89.28 172.365C89.41 172.365 89.53 172.405 89.64 172.485C89.75 172.565 89.83 172.68 89.88 172.83L92.835 181.275L95.82 172.725ZM102.574 175.515C103.434 175.515 104.084 175.76 104.524 176.25C104.964 176.73 105.184 177.45 105.184 178.41V182.475C105.184 182.665 105.129 182.815 105.019 182.925C104.909 183.025 104.764 183.075 104.584 183.075C104.394 183.075 104.244 183.025 104.134 182.925C104.024 182.815 103.969 182.665 103.969 182.475V178.44C103.969 177.79 103.834 177.31 103.564 177C103.304 176.69 102.884 176.535 102.304 176.535C101.634 176.535 101.099 176.74 100.699 177.15C100.299 177.56 100.099 178.115 100.099 178.815V182.475C100.099 182.665 100.044 182.815 99.9338 182.925C99.8338 183.025 99.6888 183.075 99.4988 183.075C99.3088 183.075 99.1588 183.025 99.0488 182.925C98.9388 182.815 98.8838 182.665 98.8838 182.475V172.935C98.8838 172.765 98.9388 172.625 99.0488 172.515C99.1688 172.405 99.3188 172.35 99.4988 172.35C99.6888 172.35 99.8338 172.405 99.9338 172.515C100.044 172.615 100.099 172.755 100.099 172.935V176.865C100.339 176.425 100.674 176.09 101.104 175.86C101.534 175.63 102.024 175.515 102.574 175.515ZM110.644 175.515C112.474 175.515 113.389 176.475 113.389 178.395V182.475C113.389 182.655 113.334 182.8 113.224 182.91C113.124 183.02 112.984 183.075 112.804 183.075C112.624 183.075 112.479 183.02 112.369 182.91C112.259 182.8 112.204 182.655 112.204 182.475V181.755C112.014 182.185 111.724 182.52 111.334 182.76C110.944 182.99 110.494 183.105 109.984 183.105C109.514 183.105 109.079 183.01 108.679 182.82C108.289 182.63 107.979 182.365 107.749 182.025C107.519 181.685 107.404 181.31 107.404 180.9C107.404 180.35 107.544 179.925 107.824 179.625C108.104 179.315 108.564 179.095 109.204 178.965C109.844 178.825 110.734 178.755 111.874 178.755H112.204V178.26C112.204 177.66 112.079 177.22 111.829 176.94C111.589 176.66 111.194 176.52 110.644 176.52C109.964 176.52 109.274 176.705 108.574 177.075C108.304 177.245 108.114 177.33 108.004 177.33C107.884 177.33 107.784 177.285 107.704 177.195C107.624 177.105 107.584 176.99 107.584 176.85C107.584 176.71 107.624 176.59 107.704 176.49C107.794 176.38 107.934 176.27 108.124 176.16C108.474 175.96 108.869 175.805 109.309 175.695C109.759 175.575 110.204 175.515 110.644 175.515ZM110.149 182.145C110.749 182.145 111.239 181.945 111.619 181.545C112.009 181.135 112.204 180.61 112.204 179.97V179.535H111.934C111.054 179.535 110.384 179.575 109.924 179.655C109.464 179.725 109.134 179.85 108.934 180.03C108.744 180.2 108.649 180.455 108.649 180.795C108.649 181.185 108.789 181.51 109.069 181.77C109.359 182.02 109.719 182.145 110.149 182.145ZM119.238 182.115C119.588 182.145 119.763 182.305 119.763 182.595C119.763 182.765 119.698 182.895 119.568 182.985C119.448 183.065 119.263 183.095 119.013 183.075L118.608 183.045C117.808 182.985 117.218 182.745 116.838 182.325C116.458 181.905 116.268 181.27 116.268 180.42V176.655H115.263C115.093 176.655 114.958 176.615 114.858 176.535C114.768 176.445 114.723 176.33 114.723 176.19C114.723 176.04 114.768 175.92 114.858 175.83C114.958 175.74 115.093 175.695 115.263 175.695H116.268V174C116.268 173.81 116.323 173.665 116.433 173.565C116.543 173.455 116.693 173.4 116.883 173.4C117.063 173.4 117.208 173.455 117.318 173.565C117.428 173.665 117.483 173.81 117.483 174V175.695H119.148C119.308 175.695 119.433 175.74 119.523 175.83C119.623 175.92 119.673 176.04 119.673 176.19C119.673 176.33 119.623 176.445 119.523 176.535C119.433 176.615 119.308 176.655 119.148 176.655H117.483V180.48C117.483 181.03 117.593 181.43 117.813 181.68C118.043 181.92 118.383 182.055 118.833 182.085L119.238 182.115ZM128.703 182.115C129.053 182.145 129.228 182.305 129.228 182.595C129.228 182.765 129.163 182.895 129.033 182.985C128.913 183.065 128.728 183.095 128.478 183.075L128.073 183.045C127.273 182.985 126.683 182.745 126.303 182.325C125.923 181.905 125.733 181.27 125.733 180.42V176.655H124.728C124.558 176.655 124.423 176.615 124.323 176.535C124.233 176.445 124.188 176.33 124.188 176.19C124.188 176.04 124.233 175.92 124.323 175.83C124.423 175.74 124.558 175.695 124.728 175.695H125.733V174C125.733 173.81 125.788 173.665 125.898 173.565C126.008 173.455 126.158 173.4 126.348 173.4C126.528 173.4 126.673 173.455 126.783 173.565C126.893 173.665 126.948 173.81 126.948 174V175.695H128.613C128.773 175.695 128.898 175.74 128.988 175.83C129.088 175.92 129.138 176.04 129.138 176.19C129.138 176.33 129.088 176.445 128.988 176.535C128.898 176.615 128.773 176.655 128.613 176.655H126.948V180.48C126.948 181.03 127.058 181.43 127.278 181.68C127.508 181.92 127.848 182.055 128.298 182.085L128.703 182.115ZM133.706 183.105C133.016 183.105 132.406 182.95 131.876 182.64C131.356 182.33 130.951 181.89 130.661 181.32C130.381 180.74 130.241 180.07 130.241 179.31C130.241 178.55 130.381 177.885 130.661 177.315C130.951 176.735 131.356 176.29 131.876 175.98C132.406 175.67 133.016 175.515 133.706 175.515C134.396 175.515 135.006 175.67 135.536 175.98C136.066 176.29 136.471 176.735 136.751 177.315C137.041 177.885 137.186 178.55 137.186 179.31C137.186 180.07 137.041 180.74 136.751 181.32C136.471 181.89 136.066 182.33 135.536 182.64C135.006 182.95 134.396 183.105 133.706 183.105ZM133.706 182.1C134.426 182.1 134.976 181.865 135.356 181.395C135.746 180.915 135.941 180.22 135.941 179.31C135.941 178.42 135.746 177.735 135.356 177.255C134.966 176.765 134.416 176.52 133.706 176.52C132.996 176.52 132.446 176.765 132.056 177.255C131.666 177.735 131.471 178.42 131.471 179.31C131.471 180.21 131.661 180.9 132.041 181.38C132.431 181.86 132.986 182.1 133.706 182.1ZM149.018 181.305C149.128 181.305 149.223 181.35 149.303 181.44C149.383 181.53 149.423 181.645 149.423 181.785C149.423 182.035 149.248 182.265 148.898 182.475C148.538 182.685 148.158 182.845 147.758 182.955C147.358 183.055 146.968 183.105 146.588 183.105C145.458 183.105 144.563 182.77 143.903 182.1C143.253 181.43 142.928 180.505 142.928 179.325C142.928 178.575 143.073 177.915 143.363 177.345C143.653 176.765 144.058 176.315 144.578 175.995C145.108 175.675 145.708 175.515 146.378 175.515C147.328 175.515 148.083 175.825 148.643 176.445C149.203 177.065 149.483 177.905 149.483 178.965C149.483 179.165 149.443 179.31 149.363 179.4C149.283 179.49 149.153 179.535 148.973 179.535H144.143C144.233 181.255 145.048 182.115 146.588 182.115C146.978 182.115 147.313 182.065 147.593 181.965C147.873 181.855 148.173 181.71 148.493 181.53C148.753 181.38 148.928 181.305 149.018 181.305ZM146.393 176.46C145.753 176.46 145.238 176.66 144.848 177.06C144.468 177.46 144.243 178.025 144.173 178.755H148.418C148.398 178.015 148.213 177.45 147.863 177.06C147.513 176.66 147.023 176.46 146.393 176.46ZM157.421 182.07C157.541 182.19 157.601 182.335 157.601 182.505C157.601 182.655 157.546 182.785 157.436 182.895C157.326 183.005 157.196 183.06 157.046 183.06C156.886 183.06 156.741 182.99 156.611 182.85L154.181 180.075L151.766 182.85C151.636 182.99 151.491 183.06 151.331 183.06C151.181 183.06 151.046 183.005 150.926 182.895C150.816 182.785 150.761 182.65 150.761 182.49C150.761 182.34 150.821 182.2 150.941 182.07L153.431 179.265L151.046 176.55C150.926 176.41 150.866 176.27 150.866 176.13C150.866 175.97 150.921 175.835 151.031 175.725C151.151 175.615 151.281 175.56 151.421 175.56C151.581 175.56 151.726 175.63 151.856 175.77L154.181 178.44L156.506 175.77C156.636 175.63 156.781 175.56 156.941 175.56C157.091 175.56 157.221 175.615 157.331 175.725C157.441 175.835 157.496 175.965 157.496 176.115C157.496 176.285 157.436 176.43 157.316 176.55L154.931 179.265L157.421 182.07ZM163.11 175.515C163.75 175.515 164.315 175.675 164.805 175.995C165.295 176.315 165.675 176.765 165.945 177.345C166.215 177.915 166.35 178.58 166.35 179.34C166.35 180.1 166.215 180.765 165.945 181.335C165.675 181.895 165.295 182.33 164.805 182.64C164.325 182.95 163.76 183.105 163.11 183.105C162.54 183.105 162.04 182.98 161.61 182.73C161.19 182.48 160.87 182.125 160.65 181.665V185.19C160.65 185.37 160.595 185.51 160.485 185.61C160.385 185.72 160.24 185.775 160.05 185.775C159.86 185.775 159.71 185.72 159.6 185.61C159.49 185.5 159.435 185.36 159.435 185.19V176.145C159.435 175.965 159.49 175.82 159.6 175.71C159.71 175.6 159.86 175.545 160.05 175.545C160.24 175.545 160.385 175.6 160.485 175.71C160.595 175.82 160.65 175.965 160.65 176.145V176.955C160.87 176.495 161.19 176.14 161.61 175.89C162.04 175.64 162.54 175.515 163.11 175.515ZM162.87 182.1C163.58 182.1 164.13 181.86 164.52 181.38C164.91 180.9 165.105 180.22 165.105 179.34C165.105 178.46 164.91 177.775 164.52 177.285C164.13 176.785 163.58 176.535 162.87 176.535C162.16 176.535 161.61 176.775 161.22 177.255C160.84 177.735 160.65 178.42 160.65 179.31C160.65 180.2 160.84 180.89 161.22 181.38C161.61 181.86 162.16 182.1 162.87 182.1ZM174.07 181.305C174.18 181.305 174.275 181.35 174.355 181.44C174.435 181.53 174.475 181.645 174.475 181.785C174.475 182.035 174.3 182.265 173.95 182.475C173.59 182.685 173.21 182.845 172.81 182.955C172.41 183.055 172.02 183.105 171.64 183.105C170.51 183.105 169.615 182.77 168.955 182.1C168.305 181.43 167.98 180.505 167.98 179.325C167.98 178.575 168.125 177.915 168.415 177.345C168.705 176.765 169.11 176.315 169.63 175.995C170.16 175.675 170.76 175.515 171.43 175.515C172.38 175.515 173.135 175.825 173.695 176.445C174.255 177.065 174.535 177.905 174.535 178.965C174.535 179.165 174.495 179.31 174.415 179.4C174.335 179.49 174.205 179.535 174.025 179.535H169.195C169.285 181.255 170.1 182.115 171.64 182.115C172.03 182.115 172.365 182.065 172.645 181.965C172.925 181.855 173.225 181.71 173.545 181.53C173.805 181.38 173.98 181.305 174.07 181.305ZM171.445 176.46C170.805 176.46 170.29 176.66 169.9 177.06C169.52 177.46 169.295 178.025 169.225 178.755H173.47C173.45 178.015 173.265 177.45 172.915 177.06C172.565 176.66 172.075 176.46 171.445 176.46ZM179.59 183.105C178.91 183.105 178.305 182.95 177.775 182.64C177.255 182.33 176.85 181.89 176.56 181.32C176.28 180.75 176.14 180.09 176.14 179.34C176.14 178.59 176.285 177.925 176.575 177.345C176.875 176.765 177.29 176.315 177.82 175.995C178.35 175.675 178.96 175.515 179.65 175.515C180.03 175.515 180.405 175.57 180.775 175.68C181.155 175.78 181.485 175.93 181.765 176.13C181.945 176.25 182.07 176.37 182.14 176.49C182.22 176.6 182.26 176.725 182.26 176.865C182.26 177.005 182.22 177.12 182.14 177.21C182.07 177.3 181.975 177.345 181.855 177.345C181.785 177.345 181.71 177.325 181.63 177.285C181.55 177.245 181.48 177.205 181.42 177.165C181.37 177.125 181.335 177.1 181.315 177.09C181.055 176.92 180.805 176.785 180.565 176.685C180.335 176.585 180.05 176.535 179.71 176.535C178.98 176.535 178.41 176.785 178 177.285C177.6 177.775 177.4 178.46 177.4 179.34C177.4 180.22 177.6 180.9 178 181.38C178.41 181.86 178.98 182.1 179.71 182.1C180.05 182.1 180.34 182.05 180.58 181.95C180.83 181.85 181.08 181.715 181.33 181.545C181.44 181.475 181.545 181.415 181.645 181.365C181.745 181.315 181.83 181.29 181.9 181.29C182.01 181.29 182.1 181.335 182.17 181.425C182.25 181.515 182.29 181.63 182.29 181.77C182.29 181.9 182.255 182.02 182.185 182.13C182.115 182.23 181.985 182.345 181.795 182.475C181.515 182.665 181.175 182.82 180.775 182.94C180.385 183.05 179.99 183.105 179.59 183.105ZM187.393 182.115C187.743 182.145 187.918 182.305 187.918 182.595C187.918 182.765 187.853 182.895 187.723 182.985C187.603 183.065 187.418 183.095 187.168 183.075L186.763 183.045C185.963 182.985 185.373 182.745 184.993 182.325C184.613 181.905 184.423 181.27 184.423 180.42V176.655H183.418C183.248 176.655 183.113 176.615 183.013 176.535C182.923 176.445 182.878 176.33 182.878 176.19C182.878 176.04 182.923 175.92 183.013 175.83C183.113 175.74 183.248 175.695 183.418 175.695H184.423V174C184.423 173.81 184.478 173.665 184.588 173.565C184.698 173.455 184.848 173.4 185.038 173.4C185.218 173.4 185.363 173.455 185.473 173.565C185.583 173.665 185.638 173.81 185.638 174V175.695H187.303C187.463 175.695 187.588 175.74 187.678 175.83C187.778 175.92 187.828 176.04 187.828 176.19C187.828 176.33 187.778 176.445 187.678 176.535C187.588 176.615 187.463 176.655 187.303 176.655H185.638V180.48C185.638 181.03 185.748 181.43 185.968 181.68C186.198 181.92 186.538 182.055 186.988 182.085L187.393 182.115Z" fill="#273043"/>
<path d="M82.3906 155V137.938H87.8867C89.3945 137.938 90.75 138.281 91.9531 138.969C93.1562 139.648 94.0938 140.613 94.7656 141.863C95.4453 143.105 95.7891 144.5 95.7969 146.047V146.832C95.7969 148.395 95.4648 149.797 94.8008 151.039C94.1445 152.273 93.2148 153.242 92.0117 153.945C90.8164 154.641 89.4805 154.992 88.0039 155H82.3906ZM86.5039 141.113V151.836H87.9336C89.1133 151.836 90.0195 151.418 90.6523 150.582C91.2852 149.738 91.6016 148.488 91.6016 146.832V146.094C91.6016 144.445 91.2852 143.203 90.6523 142.367C90.0195 141.531 89.0977 141.113 87.8867 141.113H86.5039ZM103.859 155.234C101.914 155.234 100.34 154.656 99.1367 153.5C97.9336 152.336 97.332 150.824 97.332 148.965V148.637C97.332 147.34 97.5703 146.195 98.0469 145.203C98.5312 144.211 99.2344 143.445 100.156 142.906C101.078 142.359 102.172 142.086 103.438 142.086C105.219 142.086 106.625 142.641 107.656 143.75C108.688 144.852 109.203 146.391 109.203 148.367V149.902H101.352C101.492 150.613 101.801 151.172 102.277 151.578C102.754 151.984 103.371 152.188 104.129 152.188C105.379 152.188 106.355 151.75 107.059 150.875L108.863 153.008C108.371 153.688 107.672 154.23 106.766 154.637C105.867 155.035 104.898 155.234 103.859 155.234ZM103.414 145.133C102.258 145.133 101.57 145.898 101.352 147.43H105.336V147.125C105.352 146.492 105.191 146.004 104.855 145.66C104.52 145.309 104.039 145.133 103.414 145.133ZM115.695 150.301L117.699 142.32H121.859L117.723 155H113.691L109.555 142.32H113.727L115.695 150.301ZM129.008 155.234C127.062 155.234 125.488 154.656 124.285 153.5C123.082 152.336 122.48 150.824 122.48 148.965V148.637C122.48 147.34 122.719 146.195 123.195 145.203C123.68 144.211 124.383 143.445 125.305 142.906C126.227 142.359 127.32 142.086 128.586 142.086C130.367 142.086 131.773 142.641 132.805 143.75C133.836 144.852 134.352 146.391 134.352 148.367V149.902H126.5C126.641 150.613 126.949 151.172 127.426 151.578C127.902 151.984 128.52 152.188 129.277 152.188C130.527 152.188 131.504 151.75 132.207 150.875L134.012 153.008C133.52 153.688 132.82 154.23 131.914 154.637C131.016 155.035 130.047 155.234 129.008 155.234ZM128.562 145.133C127.406 145.133 126.719 145.898 126.5 147.43H130.484V147.125C130.5 146.492 130.34 146.004 130.004 145.66C129.668 145.309 129.188 145.133 128.562 145.133ZM140.117 155H136.156V137H140.117V155ZM142.062 148.543C142.062 147.277 142.309 146.152 142.801 145.168C143.293 144.176 144 143.414 144.922 142.883C145.844 142.352 146.926 142.086 148.168 142.086C150.066 142.086 151.562 142.676 152.656 143.855C153.75 145.027 154.297 146.625 154.297 148.648V148.789C154.297 150.766 153.746 152.336 152.645 153.5C151.551 154.656 150.066 155.234 148.191 155.234C146.387 155.234 144.938 154.695 143.844 153.617C142.75 152.531 142.16 151.062 142.074 149.211L142.062 148.543ZM146.012 148.789C146.012 149.961 146.195 150.82 146.562 151.367C146.93 151.914 147.473 152.188 148.191 152.188C149.598 152.188 150.316 151.105 150.348 148.941V148.543C150.348 146.27 149.621 145.133 148.168 145.133C146.848 145.133 146.133 146.113 146.023 148.074L146.012 148.789ZM167.809 148.754C167.809 150.723 167.363 152.297 166.473 153.477C165.59 154.648 164.395 155.234 162.887 155.234C161.723 155.234 160.766 154.809 160.016 153.957V159.875H156.066V142.32H159.758L159.875 143.492C160.633 142.555 161.629 142.086 162.863 142.086C164.426 142.086 165.641 142.664 166.508 143.82C167.375 144.969 167.809 146.551 167.809 148.566V148.754ZM163.859 148.508C163.859 146.258 163.203 145.133 161.891 145.133C160.953 145.133 160.328 145.469 160.016 146.141V151.133C160.359 151.836 160.992 152.188 161.914 152.188C163.172 152.188 163.82 151.102 163.859 148.93V148.508ZM173.293 142.32L173.422 143.809C174.32 142.66 175.527 142.086 177.043 142.086C178.645 142.086 179.727 142.723 180.289 143.996C181.148 142.723 182.391 142.086 184.016 142.086C186.586 142.086 187.906 143.641 187.977 146.75V155H184.016V146.996C184.016 146.348 183.906 145.875 183.688 145.578C183.469 145.281 183.07 145.133 182.492 145.133C181.711 145.133 181.129 145.48 180.746 146.176L180.758 146.34V155H176.797V147.02C176.797 146.355 176.691 145.875 176.48 145.578C176.27 145.281 175.867 145.133 175.273 145.133C174.516 145.133 173.938 145.48 173.539 146.176V155H169.59V142.32H173.293ZM196.367 155.234C194.422 155.234 192.848 154.656 191.645 153.5C190.441 152.336 189.84 150.824 189.84 148.965V148.637C189.84 147.34 190.078 146.195 190.555 145.203C191.039 144.211 191.742 143.445 192.664 142.906C193.586 142.359 194.68 142.086 195.945 142.086C197.727 142.086 199.133 142.641 200.164 143.75C201.195 144.852 201.711 146.391 201.711 148.367V149.902H193.859C194 150.613 194.309 151.172 194.785 151.578C195.262 151.984 195.879 152.188 196.637 152.188C197.887 152.188 198.863 151.75 199.566 150.875L201.371 153.008C200.879 153.688 200.18 154.23 199.273 154.637C198.375 155.035 197.406 155.234 196.367 155.234ZM195.922 145.133C194.766 145.133 194.078 145.898 193.859 147.43H197.844V147.125C197.859 146.492 197.699 146.004 197.363 145.66C197.027 145.309 196.547 145.133 195.922 145.133ZM206.938 142.32L207.066 143.809C207.941 142.66 209.148 142.086 210.688 142.086C212.008 142.086 212.992 142.48 213.641 143.27C214.297 144.059 214.637 145.246 214.66 146.832V155H210.699V146.996C210.699 146.355 210.57 145.887 210.312 145.59C210.055 145.285 209.586 145.133 208.906 145.133C208.133 145.133 207.559 145.438 207.184 146.047V155H203.234V142.32H206.938ZM221.457 139.168V142.32H223.543V145.062H221.457V150.863C221.457 151.34 221.543 151.672 221.715 151.859C221.887 152.047 222.227 152.141 222.734 152.141C223.125 152.141 223.453 152.117 223.719 152.07V154.895C223.008 155.121 222.266 155.234 221.492 155.234C220.133 155.234 219.129 154.914 218.48 154.273C217.832 153.633 217.508 152.66 217.508 151.355V145.062H215.891V142.32H217.508V139.168H221.457Z" fill="#273043"/>
<path d="M81.1016 157.344H223.988V158.516H81.1016V157.344Z" fill="#273043"/>
<path d="M234 151.943L237.09 148.5L234 145.057L234.951 144L239 148.5L234.951 153L234 151.943Z" fill="#273043"/>
<defs>
<filter id="filter0_ddd" x="0" y="0" width="342" height="349" filterUnits="userSpaceOnUse" color-interpolation-filters="sRGB">
<feFlood flood-opacity="0" result="BackgroundImageFix"/>
<feColorMatrix in="SourceAlpha" type="matrix" values="0 0 0 0 0 0 0 0 0 0 0 0 0 0 0 0 0 0 127 0"/>
<feOffset dy="11"/>
<feGaussianBlur stdDeviation="7.5"/>
<feColorMatrix type="matrix" values="0 0 0 0 0 0 0 0 0 0 0 0 0 0 0 0 0 0 0.2 0"/>
<feBlend mode="normal" in2="BackgroundImageFix" result="effect1_dropShadow"/>
<feColorMatrix in="SourceAlpha" type="matrix" values="0 0 0 0 0 0 0 0 0 0 0 0 0 0 0 0 0 0 127 0"/>
<feOffset dy="9"/>
<feGaussianBlur stdDeviation="23"/>
<feColorMatrix type="matrix" values="0 0 0 0 0 0 0 0 0 0 0 0 0 0 0 0 0 0 0.12 0"/>
<feBlend mode="normal" in2="effect1_dropShadow" result="effect2_dropShadow"/>
<feColorMatrix in="SourceAlpha" type="matrix" values="0 0 0 0 0 0 0 0 0 0 0 0 0 0 0 0 0 0 127 0"/>
<feOffset dy="24"/>
<feGaussianBlur stdDeviation="19"/>
<feColorMatrix type="matrix" values="0 0 0 0 0 0 0 0 0 0 0 0 0 0 0 0 0 0 0.14 0"/>
<feBlend mode="normal" in2="effect2_dropShadow" result="effect3_dropShadow"/>
<feBlend mode="normal" in="SourceGraphic" in2="effect3_dropShadow" result="shape"/>
</filter>
</defs>
</svg>
